<?xml version="1.0" standalone="no"?>
<!DOCTYPE svg PUBLIC "-//W3C//DTD SVG 20010904//EN"
 "http://www.w3.org/TR/2001/REC-SVG-20010904/DTD/svg10.dtd">
<svg version="1.0" xmlns="http://www.w3.org/2000/svg"
 width="512.000000pt" height="512.000000pt" viewBox="0 0 512.000000 512.000000"
 preserveAspectRatio="xMidYMid meet">
<metadata>
Created by potrace 1.11, written by Peter Selinger 2001-2013
</metadata>
<g transform="translate(0.000000,512.000000) scale(0.100000,-0.100000)"
fill="#000000" stroke="none">
<path d="M4052 3929 c-140 -31 -289 -86 -467 -173 -145 -71 -253 -131 -630
-348 -161 -92 -295 -150 -375 -162 -183 -27 -688 -28 -905 -1 -16 2 -57 7 -91
10 -33 3 -71 7 -85 10 -13 2 -55 6 -94 10 -38 4 -72 8 -75 10 -3 1 -45 6 -95
10 -49 4 -103 9 -120 11 -41 6 -263 5 -300 -1 -278 -47 -429 -191 -544 -519
-50 -141 -63 -207 -66 -339 -3 -152 23 -278 86 -416 179 -389 675 -738 1346
-946 136 -43 322 -91 383 -100 14 -2 50 -9 80 -15 63 -12 89 -17 145 -25 23
-3 50 -7 60 -9 18 -3 129 -14 235 -22 68 -6 306 -5 380 1 252 21 477 98 730
250 558 336 1030 955 1213 1591 80 279 84 548 10 732 -73 183 -205 336 -345
401 -45 21 -108 44 -138 50 -77 16 -240 11 -338 -10z"/>
</g>
</svg>
